<svg xmlns="http://www.w3.org/2000/svg" width="512" height="512" viewBox="0 0 512 512" role="img" aria-label="Mood bot logo">
  <defs>
    <linearGradient id="bg" x1="0" x2="1" y1="0" y2="1">
      <stop offset="0%" stop-color="#0f172a"/>
      <stop offset="100%" stop-color="#1e293b"/>
    </linearGradient>
    <filter id="shadow" x="-20%" y="-20%" width="140%" height="140%">
      <feDropShadow dx="0" dy="8" stdDeviation="12" flood-color="#000" flood-opacity=".25"/>
    </filter>
  </defs>
  <rect width="512" height="512" rx="120" fill="url(#bg)"/>
  <g filter="url(#shadow)" transform="translate(136 96)">
    <path d="M120 0c66.274 0 120 44.523 120 99.5 0 19.788-7.328 38.207-19.937 53.32-4.748 5.737-6.084 13.474-6.52 21.44l-.31 5.744c-.378 6.984-5.95 12.496-12.94 12.496H162l-30.24 47.638c-2.92 4.604-9.677 4.604-12.597 0L88.923 192H50.707c-6.99 0-12.562-5.512-12.94-12.496l-.31-5.744c-.436-7.966-1.772-15.703-6.52-21.44C18.328 137.707 11 119.288 11 99.5 11 44.523 64.726 0 131 0Z" fill="#0b1222" stroke="#1f2937" stroke-width="6"/>
    <rect x="86" y="34" width="68" height="180" rx="20" fill="#0f172a" stroke="#1f2937" stroke-width="6"/>
    <circle cx="120" cy="74" r="26" fill="#22c55e" stroke="#16a34a" stroke-width="6"/>
    <circle cx="120" cy="124" r="26" fill="#facc15" stroke="#eab308" stroke-width="6"/>
    <circle cx="120" cy="174" r="26" fill="#ef4444" stroke="#dc2626" stroke-width="6"/>
  </g>
  <rect x="156" y="334" width="200" height="60" rx="30" fill="#0b1222" stroke="#1f2937" stroke-width="6"/>
  <path d="M200 364h120" stroke="#334155" stroke-width="10" stroke-linecap="round"/>
  <path d="M216 364c0-6.627 5.373-12 12-12h56c6.627 0 12 5.373 12 12s-5.373 12-12 12h-56c-6.627 0-12-5.373-12-12Z" fill="#1d4ed8"/>
</svg>

